<svg xmlns="http://www.w3.org/2000/svg" viewBox="0 0 1200 630" width="1200" height="630">
  <defs>
    <linearGradient id="bg_g" x1="0" y1="0" x2="0" y2="1">
      <stop offset="0" stop-color="#0E1116"></stop>
      <stop offset="1" stop-color="#141821"></stop>
    </linearGradient>
    <linearGradient id="og_smoke" x1="0" y1="1" x2="0" y2="0">
      <stop offset="0" stop-color="#FFB347" stop-opacity="0.05"></stop>
      <stop offset="0.2" stop-color="#FFB347" stop-opacity="0.55"></stop>
      <stop offset="0.6" stop-color="#FF7A45" stop-opacity="0.9"></stop>
      <stop offset="1" stop-color="#E84545"></stop>
    </linearGradient>
    <linearGradient id="og_stack" x1="0" y1="0" x2="0" y2="1">
      <stop offset="0" stop-color="#F4F6FA"></stop>
      <stop offset="1" stop-color="#BFC6D4"></stop>
    </linearGradient>
  </defs>
  <rect width="1200" height="630" fill="url(#bg_g)"></rect>
  <g transform="translate(120, 180) scale(4.2)">
    <path d="M24 30 C 20 24, 32 22, 28 16 C 24 10, 36 8, 32 2 L 36 2 C 40 8, 28 10, 32 16 C 36 22, 24 24, 28 30 Z" fill="url(#og_smoke)"></path>
    <circle cx="38" cy="10" r="2.6" fill="url(#og_smoke)" opacity="0.7"></circle>
    <circle cx="22" cy="14" r="2" fill="url(#og_smoke)" opacity="0.55"></circle>
    <path d="M16 60 L20 36 Q20 30 24 30 L40 30 Q44 30 44 36 L48 60 Z" fill="url(#og_stack)"></path>
    <rect x="18" y="36" width="28" height="2.5" fill="#0E1116" opacity="0.20"></rect>
    <rect x="22" y="44" width="20" height="1.4" fill="#0E1116" opacity="0.13"></rect>
    <rect x="22" y="50" width="20" height="1.4" fill="#0E1116" opacity="0.13"></rect>
    <rect x="22" y="56" width="20" height="1.4" fill="#0E1116" opacity="0.13"></rect>
  </g>
  <g font-family="Inter, sans-serif" fill="#E8ECF2">
    <text x="440" y="290" font-size="84" font-weight="600" letter-spacing="-2">Pollution</text>
    <text x="440" y="380" font-size="84" font-weight="400" letter-spacing="-2" fill="#BFC6D4">Analyst</text>
    <text x="440" y="450" font-family="JetBrains Mono, monospace" font-size="22" fill="#8A93A6" letter-spacing="2">EPA × CDC · BAY AREA · 1,588 TRACTS</text>
  </g>
</svg>