<svg xmlns="http://www.w3.org/2000/svg" viewBox="0 0 320 64" width="320" height="64">
  <defs>
    <linearGradient id="smokeWM" x1="0" y1="1" x2="0" y2="0">
      <stop offset="0" stop-color="#E6B450" stop-opacity="0.95"></stop>
      <stop offset="0.55" stop-color="#D97A30" stop-opacity="0.85"></stop>
      <stop offset="1" stop-color="#C44545" stop-opacity="0.55"></stop>
    </linearGradient>
  </defs>
  <g>
    <circle cx="14" cy="20" r="3.0" fill="url(#smokeWM)" opacity="0.55"></circle>
    <circle cx="18" cy="14" r="3.8" fill="url(#smokeWM)" opacity="0.75"></circle>
    <circle cx="13" cy="11" r="2.6" fill="url(#smokeWM)" opacity="0.6"></circle>
    <circle cx="32" cy="8" r="4.6" fill="url(#smokeWM)" opacity="0.85"></circle>
    <circle cx="38" cy="13" r="3.4" fill="url(#smokeWM)" opacity="0.7"></circle>
    <circle cx="26" cy="13" r="3.2" fill="url(#smokeWM)" opacity="0.65"></circle>
    <circle cx="50" cy="18" r="3.2" fill="url(#smokeWM)" opacity="0.6"></circle>
    <circle cx="46" cy="13" r="3.6" fill="url(#smokeWM)" opacity="0.75"></circle>
    <circle cx="54" cy="13" r="2.4" fill="url(#smokeWM)" opacity="0.55"></circle>
    <rect x="11" y="22" width="8" height="34" rx="1.2" fill="#E8ECF2"></rect>
    <rect x="9" y="22" width="12" height="2.6" rx="0.6" fill="#E8ECF2"></rect>
    <rect x="28" y="18" width="10" height="38" rx="1.4" fill="#E8ECF2"></rect>
    <rect x="26" y="18" width="14" height="3" rx="0.7" fill="#E8ECF2"></rect>
    <rect x="46" y="22" width="8" height="34" rx="1.2" fill="#E8ECF2"></rect>
    <rect x="44" y="22" width="12" height="2.6" rx="0.6" fill="#E8ECF2"></rect>
  </g>
  <g transform="translate(76, 0)" font-family="Inter, system-ui, sans-serif" fill="#E8ECF2">
    <text x="0" y="38" font-size="22" font-weight="600" letter-spacing="-0.5">Pollution Analyst</text>
    <text x="0" y="54" font-size="10" font-family="JetBrains Mono, monospace" letter-spacing="2" fill="#8A93A6">EPA · CDC · CENSUS</text>
  </g>
</svg>